<svg aria-hidden="true" style="position: absolute; width: 0; height: 0; overflow: hidden;" version="1.1" xmlns="http://www.w3.org/2000/svg" xmlns:xlink="http://www.w3.org/1999/xlink">
<defs>
<symbol id="icon-iconPlay" viewBox="0 0 32 32">
<path fill="none" opacity="0.5625" stroke="#fff" stroke-width="0.8533" stroke-miterlimit="4" stroke-linecap="butt" stroke-linejoin="miter" style="stroke: var(--color1, #fff)" d="M16 31.573c8.601 0 15.573-6.973 15.573-15.573s-6.973-15.573-15.573-15.573-15.573 6.973-15.573 15.573 6.973 15.573 15.573 15.573z"></path>
<path fill="none" opacity="0.5625" stroke="#fff" stroke-width="0.8533" stroke-miterlimit="4" stroke-linecap="butt" stroke-linejoin="miter" style="stroke: var(--color1, #fff)" d="M13.76 12.12l6.72 3.88-6.72 3.88v-7.759z"></path>
</symbol>
<symbol id="icon-iconYouTube" viewBox="0 0 32 32">
<path fill="#fff" style="fill: var(--color1, #fff)" d="M30.754 6.144c-1.157-1.373-3.291-1.933-7.36-1.933h-14.787c-4.163 0-6.333 0.596-7.483 2.058-1.123 1.425-1.123 3.525-1.123 6.432v5.541c0 5.63 1.331 8.488 8.606 8.488h14.787c3.53 0 5.487-0.493 6.754-1.706 1.299-1.243 1.853-3.271 1.853-6.784v-5.541c0-3.065-0.088-5.176-1.246-6.555zM20.542 16.236l-6.712 3.508c-0.139 0.075-0.304 0.119-0.48 0.119-0.569 0-1.031-0.461-1.031-1.031 0-0.001 0-0.002 0-0.003v0-6.995c0-0.57 0.462-1.032 1.032-1.032 0.174 0 0.337 0.043 0.481 0.118l-0.006-0.003 6.715 3.486c0.333 0.176 0.556 0.52 0.556 0.916s-0.222 0.739-0.549 0.912l-0.006 0.003z"></path>
</symbol>
<symbol id="icon-iconFB" viewBox="0 0 32 32">
<path fill="#fff" style="fill: var(--color1, #fff)" d="M23.76 0.007l-4.149-0.007c-4.66 0-7.675 3.092-7.675 7.876v3.63h-4.172c0 0 0 0 0 0-0.36 0-0.652 0.292-0.652 0.652 0 0.001 0 0.001 0 0.002v-0 5.262c0 0.361 0.292 0.652 0.652 0.652h4.172v13.275c0 0.361 0.292 0.652 0.652 0.652h5.444c0.36 0 0.652-0.292 0.652-0.652v-13.275h4.878c0.36 0 0.652-0.292 0.652-0.652v0l0.002-5.262c-0.001-0.36-0.293-0.651-0.652-0.652h-4.88v-3.079c0-1.479 0.352-2.231 2.279-2.231h2.796c0.36 0 0.652-0.292 0.652-0.652v0-4.887c0-0.36-0.292-0.652-0.652-0.652v0z"></path>
</symbol>
<symbol id="icon-iconTwitter" viewBox="0 0 32 32">
<path fill="#fff" style="fill: var(--color1, #fff)" d="M31.547 6.292c-1.043 0.469-2.252 0.808-3.519 0.956l-0.058 0.005c1.347-0.808 2.257-1.949 2.732-3.424-1.135 0.688-2.456 1.209-3.865 1.488l-0.078 0.013c-1.231-1.309-2.745-1.962-4.541-1.962-1.718 0-3.183 0.606-4.396 1.819-1.213 1.211-1.817 2.676-1.817 4.394 0 0.461 0.051 0.936 0.153 1.423-2.63-0.125-5.071-0.819-7.241-1.959l0.095 0.045c-2.24-1.16-4.125-2.701-5.639-4.556l-0.025-0.032c-0.532 0.886-0.847 1.955-0.847 3.098 0 0.013 0 0.026 0 0.038v-0.002c0 1.064 0.251 2.053 0.751 2.964 0.5 0.909 1.172 1.647 2.019 2.211-1.038-0.038-2-0.326-2.839-0.806l0.030 0.016v0.077c0 1.501 0.472 2.818 1.415 3.953 0.885 1.084 2.119 1.854 3.528 2.139l0.039 0.007c-0.539 0.14-1.085 0.211-1.635 0.211-0.36 0-0.751-0.032-1.174-0.096 0.405 1.261 1.172 2.31 2.177 3.057l0.016 0.012c0.992 0.763 2.249 1.227 3.613 1.241l0.003 0c-2.257 1.768-4.827 2.654-7.714 2.654-0.551 0-1.051-0.025-1.499-0.077 2.885 1.859 6.065 2.789 9.539 2.789 2.206 0 4.278-0.349 6.215-1.048s3.589-1.635 4.962-2.809c1.361-1.169 2.534-2.501 3.505-3.978l0.044-0.071c0.994-1.526 1.735-3.119 2.223-4.78 0.462-1.502 0.728-3.229 0.728-5.019 0-0.275-0.006-0.549-0.019-0.82l0.001 0.039c1.222-0.893 2.254-1.956 3.087-3.168l0.029-0.044z"></path>
</symbol>
<symbol id="icon-iconVK" viewBox="0 0 32 32">
<path fill="#fff" style="fill: var(--color1, #fff)" d="M31.83 22.888c-0.038-0.084-0.075-0.152-0.114-0.218l0.005 0.010c-0.555-1-1.616-2.227-3.182-3.682l-0.032-0.034-0.016-0.016-0.018-0.016h-0.016c-0.712-0.678-1.162-1.136-1.35-1.368-0.346-0.445-0.422-0.894-0.234-1.349 0.133-0.346 0.634-1.072 1.499-2.182 0.456-0.589 0.816-1.061 1.083-1.418 1.92-2.552 2.755-4.187 2.499-4.898l-0.099-0.166c-0.067-0.099-0.24-0.192-0.517-0.275-0.278-0.083-0.634-0.096-1.066-0.042l-4.8 0.034c-0.046-0.012-0.098-0.019-0.152-0.019-0.064 0-0.127 0.010-0.185 0.028l0.004-0.001-0.216 0.051-0.083 0.042-0.067 0.050c-0.071 0.049-0.132 0.107-0.181 0.174l-0.001 0.002c-0.066 0.084-0.122 0.18-0.164 0.283l-0.003 0.008c-0.523 1.344-1.117 2.592-1.782 3.747-0.411 0.688-0.789 1.286-1.134 1.792-0.275 0.418-0.56 0.782-0.871 1.121l0.006-0.006c-0.234 0.24-0.445 0.432-0.634 0.576s-0.333 0.205-0.432 0.182c-0.178-0.037-0.274-0.060-0.369-0.083l0.085 0.018c-0.157-0.104-0.284-0.242-0.372-0.404l-0.003-0.006c-0.099-0.189-0.167-0.409-0.191-0.642l-0.001-0.008c-0.027-0.192-0.048-0.425-0.057-0.66l-0-0.013c-0.002-0.078-0.002-0.169-0.002-0.261 0-0.19 0.004-0.378 0.011-0.566l-0.001 0.027c0.011-0.346 0.016-0.578 0.016-0.701 0-0.422 0.010-0.88 0.026-1.374l0.042-1.174c0.011-0.288 0.016-0.594 0.016-0.917 0-0.32-0.019-0.574-0.058-0.757-0.043-0.203-0.103-0.382-0.181-0.551l0.007 0.016c-0.073-0.167-0.191-0.303-0.337-0.398l-0.004-0.002c-0.161-0.098-0.348-0.175-0.547-0.221l-0.013-0.003c-0.587-0.133-1.336-0.206-2.246-0.219-2.066-0.021-3.392 0.112-3.982 0.4-0.234 0.123-0.445 0.29-0.634 0.501-0.2 0.245-0.227 0.378-0.083 0.4 0.667 0.099 1.139 0.338 1.416 0.715l0.101 0.2c0.078 0.144 0.155 0.4 0.234 0.768 0.077 0.365 0.128 0.771 0.149 1.216 0.056 0.81 0.056 1.504 0 2.082-0.050 0.564-0.105 1.027-0.173 1.486l0.017-0.136c-0.056 0.433-0.207 0.822-0.432 1.159l0.006-0.010c-0.022 0.033-0.050 0.061-0.082 0.083l-0.001 0.001c-0.133 0.053-0.287 0.083-0.448 0.083-0.001 0-0.001 0-0.002 0h0c-0.157 0-0.346-0.077-0.566-0.234-0.26-0.19-0.486-0.401-0.687-0.635l-0.005-0.005c-0.284-0.337-0.551-0.71-0.788-1.104l-0.022-0.039c-0.288-0.463-0.599-1.030-0.883-1.613l-0.052-0.118-0.266-0.483c-0.127-0.217-0.355-0.662-0.575-1.112l-0.108-0.245c-0.288-0.595-0.544-1.17-0.768-1.725-0.078-0.219-0.216-0.401-0.395-0.531l-0.003-0.002-0.083-0.051c-0.077-0.055-0.165-0.102-0.259-0.137l-0.008-0.003c-0.11-0.048-0.238-0.087-0.372-0.11l-0.011-0.002-4.563 0.034c-0.469 0.002-0.786 0.109-0.952 0.318l-0.067 0.099c-0.032 0.067-0.051 0.146-0.051 0.229 0 0.014 0.001 0.028 0.002 0.042l-0-0.002c0 0.122 0.032 0.272 0.101 0.448 0.666 1.568 1.39 3.078 2.173 4.533 0.784 1.456 1.464 2.627 2.042 3.515 0.576 0.89 1.166 1.728 1.766 2.517s0.997 1.294 1.19 1.515c0.195 0.224 0.347 0.389 0.459 0.501l0.416 0.4c0.267 0.266 0.658 0.586 1.174 0.957 0.517 0.373 1.088 0.739 1.717 1.101 0.627 0.36 1.357 0.656 2.192 0.883 0.832 0.227 1.643 0.32 2.432 0.274h1.915c0.389-0.032 0.683-0.155 0.883-0.366l0.066-0.083c0.054-0.088 0.096-0.191 0.123-0.3l0.002-0.008c0.040-0.139 0.059-0.293 0.059-0.459-0.002-0.058-0.003-0.126-0.003-0.195 0-0.388 0.040-0.767 0.117-1.132l-0.006 0.036c0.083-0.382 0.178-0.672 0.285-0.866 0.158-0.295 0.374-0.541 0.634-0.729l0.006-0.004c0.037-0.020 0.081-0.040 0.127-0.057l0.008-0.002c0.266-0.088 0.579-0.002 0.941 0.259s0.701 0.584 1.018 0.966c0.315 0.384 0.696 0.814 1.141 1.291 0.445 0.478 0.832 0.832 1.166 1.066l0.333 0.2c0.222 0.134 0.512 0.256 0.867 0.368 0.354 0.11 0.666 0.138 0.933 0.083l4.264-0.067c0.422 0 0.75-0.070 0.982-0.208 0.234-0.139 0.373-0.293 0.416-0.459 0.023-0.091 0.036-0.196 0.036-0.305 0-0.093-0.010-0.183-0.028-0.27l0.002 0.008c-0.025-0.166-0.066-0.315-0.122-0.456l0.005 0.014z"></path>
</symbol>
<symbol id="icon-iconBurger" viewBox="0 0 32 32">
<path fill="#fff" style="fill: var(--color1, #fff)" d="M0 2.133h32v2.133h-32zM0 14.933h32v2.133h-32zM0 27.733h32v2.133h-32z"></path>
</symbol>
<symbol id="icon-iconLogo" viewBox="0 0 146 32">
<path fill="#fff" style="fill: var(--color1, #fff)" d="M6.893 0.35h6.615v1.767h-2.196v25.040h-1.97v-25.040h-2.449v-1.767z"></path>
<path fill="#fff" style="fill: var(--color1, #fff)" d="M22.936 4.036c0.035 0 0.053 0.162 0.053 0.487s-0.004 0.65-0.013 0.975v0.472c-0.701 0-1.322 0.162-1.863 0.487-0.532 0.315-1.056 0.888-1.57 1.721v18.978h-1.983v-22.847h1.983v2.544c0.231-0.894 0.634-1.584 1.211-2.071 0.586-0.498 1.313-0.746 2.183-0.746z"></path>
<path fill="#fff" style="fill: var(--color1, #fff)" d="M27.161 4.31h1.996v22.847h-1.996v-22.847zM27.161 0.015h1.983v2.193h-1.983v-2.193z"></path>
<path fill="#fff" style="fill: var(--color1, #fff)" d="M40.609 10.997c0-1.787-0.067-2.899-0.2-3.336-0.124-0.447-0.275-0.828-0.452-1.142s-0.47-0.472-0.878-0.472c-0.408 0-0.71 0.030-0.905 0.091-0.479 0.152-0.83 0.594-1.052 1.325-0.222 0.721-0.333 1.909-0.333 3.564v9.078c0 1.939 0.133 3.31 0.399 4.112 0.275 0.792 0.79 1.188 1.544 1.188s1.256-0.396 1.504-1.188c0.248-0.792 0.373-2.188 0.373-4.189v-9.032zM36.789 6.062c0.47-1.279 1.353-1.919 2.649-1.919 0.905 0 1.584 0.345 2.036 1.036 0.461 0.68 0.763 1.564 0.905 2.65 0.142 1.076 0.213 2.376 0.213 3.899v8.194c0 0.030 0 0.066 0 0.107 0 2.874-0.328 4.828-0.985 5.864-0.657 1.026-1.553 1.538-2.689 1.538-0.452 0-0.878-0.183-1.278-0.548-0.39-0.376-0.674-0.833-0.852-1.371v5.681h-1.983v-26.883h1.983v1.752z"></path>
<path fill="#fff" style="fill: var(--color1, #fff)" d="M55.806 4.585l0.013 0.625c0 1.097 0.497 3.046 1.491 5.849 0.683-0.975 1.207-1.929 1.571-2.863 0.373-0.944 0.559-1.995 0.559-3.153s-0.111-1.98-0.333-2.467c-0.222-0.498-0.745-0.746-1.57-0.746-1.074 0-1.642 0.706-1.704 2.117-0.009 0.223-0.018 0.371-0.027 0.442 0 0.061 0 0.127 0 0.198zM61.529 21.598c1.26 3.026 2.023 4.879 2.289 5.559h-1.65c-0.231-0.63-0.701-1.777-1.411-3.442-0.444 1.147-0.901 1.97-1.371 2.467s-0.941 0.833-1.411 1.005c-0.461 0.183-0.994 0.274-1.597 0.274-1.207 0-2.183-0.477-2.928-1.432s-1.118-2.264-1.118-3.93c0-1.665 0.146-2.899 0.439-3.701 0.302-0.802 0.586-1.508 0.852-2.117s1.091-1.807 2.476-3.595c-1.482-3.798-2.223-6.301-2.223-7.509 0-3.442 1.269-5.163 3.807-5.163 1.482 0 2.453 0.447 2.915 1.34 0.47 0.894 0.705 2.143 0.705 3.747s-0.31 3.006-0.932 4.204c-0.612 1.188-1.384 2.442-2.316 3.762 0.63 1.665 1.477 3.757 2.542 6.275 0.719-1.726 1.508-3.168 2.369-4.326l0.918 1.63c-0.799 1.137-1.584 2.787-2.356 4.95zM59.772 21.43c-1.295-2.985-2.249-5.224-2.862-6.717-0.745 1.137-1.358 2.29-1.837 3.458s-0.723 2.503-0.732 4.006c0 2.254 0.759 3.381 2.276 3.381 0.834 0 1.535-0.558 2.103-1.675 0.284-0.579 0.634-1.396 1.051-2.452z"></path>
<path fill="#fff" style="fill: var(--color1, #fff)" d="M82.542 0.35h2.223v26.807h-1.797v-11.484l0.306-10.799-3.341 21.705h-1.89l-3.46-21.705 0.306 10.799v11.484h-1.81v-26.807h2.223l3.687 22.512 3.554-22.512z"></path>
<path fill="#fff" style="fill: var(--color1, #fff)" d="M90.414 4.31h1.997v22.847h-1.997v-22.847zM90.414 0.015h1.983v2.193h-1.983v-2.193z"></path>
<path fill="#fff" style="fill: var(--color1, #fff)" d="M100.042 6.549c0.177-0.68 0.568-1.269 1.171-1.767 0.613-0.508 1.331-0.762 2.156-0.762s1.504 0.391 2.037 1.173c0.532 0.782 0.798 1.955 0.798 3.518v18.445h-1.983v-18.628c0-0.883-0.177-1.518-0.532-1.904-0.347-0.396-0.812-0.594-1.398-0.594-1.499 0-2.249 0.848-2.249 2.544v18.582h-1.983v-22.847h1.983v2.239z"></path>
<path fill="#fff" style="fill: var(--color1, #fff)" d="M117.11 11.363c0-1.96-0.133-3.331-0.399-4.112-0.258-0.792-0.763-1.188-1.518-1.188s-1.26 0.406-1.517 1.218c-0.258 0.802-0.387 2.198-0.387 4.189v9.047c0 2.092 0.143 3.432 0.426 4.021 0.293 0.589 0.723 0.883 1.291 0.883s0.972-0.117 1.211-0.35c0.249-0.244 0.457-0.645 0.625-1.203 0.177-0.569 0.266-1.676 0.266-3.32v-9.184zM117.097 0h1.996v27.157h-1.996v-1.736c-0.462 1.269-1.345 1.904-2.649 1.904-1.482-0.010-2.423-1.021-2.822-3.031-0.222-1.107-0.333-2.594-0.333-4.463v-8.027c0-3.067 0.319-5.128 0.958-6.184 0.647-1.056 1.557-1.584 2.728-1.584 0.453 0 0.87 0.188 1.252 0.564 0.39 0.366 0.678 0.812 0.865 1.34v-5.94z"></path>
<path fill="#efc224" style="fill: var(--color2, #efc224)" d="M140.237 7.327l5.783 6.617c0.355 0.406 0.355 1.064 0 1.471l-5.783 6.617c-0.355 0.406-0.93 0.406-1.285 0s-0.355-1.064 0-1.47l4.231-4.842h-15.979v-2.080h15.979l-4.231-4.842c-0.355-0.406-0.355-1.064 0-1.47s0.93-0.406 1.285 0z"></path>
<path fill="#efc224" style="fill: var(--color2, #efc224)" d="M3.634 13.64h-3.634v2.080h3.634v-2.080z"></path>
</symbol>
</defs>
</svg>
